<?xml version="1.0" standalone="no"?>
<!DOCTYPE svg PUBLIC "-//W3C//DTD SVG 20010904//EN"
 "http://www.w3.org/TR/2001/REC-SVG-20010904/DTD/svg10.dtd">
<svg version="1.0" xmlns="http://www.w3.org/2000/svg"
 width="513.000000pt" height="513.000000pt" viewBox="0 0 513.000000 513.000000"
 preserveAspectRatio="xMidYMid meet">
<metadata>
Created by potrace 1.14, written by Peter Selinger 2001-2017
</metadata>
<g transform="translate(0.000000,513.000000) scale(0.100000,-0.100000)"
fill="#000000" stroke="none">
<path d="M351 5104 c-161 -43 -300 -191 -331 -353 -15 -79 -14 -4312 1 -4383
26 -124 126 -256 238 -313 111 -56 -25 -53 2333 -51 l2173 2 53 21 c155 62
257 175 297 328 20 78 21 4335 1 4412 -41 154 -154 276 -305 329 l-66 23
-2170 0 c-1866 0 -2178 -2 -2224 -15z"/>
</g>
</svg>
